<svg width="36" height="36" viewBox="0 0 36 36" fill="none" xmlns="http://www.w3.org/2000/svg">
<path d="M18 0C8.09999 0 0 8.00639 0 17.8673C0 26.7831 6.58799 34.1832 15.192 35.5205V23.0384H10.62V17.8673H15.192V13.9265C15.192 9.45075 17.874 6.98999 21.996 6.98999C23.958 6.98999 26.01 7.32879 26.01 7.32879V11.7332H23.742C21.51 11.7332 20.808 13.1062 20.808 14.5149V17.8673H25.812L25.002 23.0384H20.808V35.5205C25.0496 34.8569 28.9119 32.713 31.6978 29.4757C34.4837 26.2385 36.0096 22.1212 36 17.8673C36 8.00639 27.9 0 18 0Z" fill="white"/>
</svg>
