<svg width="36" height="36" viewBox="0 0 36 36" fill="none" xmlns="http://www.w3.org/2000/svg">
<path d="M18 0C8.05982 0 0 7.98443 0 17.8316C0 27.6788 8.05982 35.6632 18 35.6632C27.9402 35.6632 36 27.6788 36 17.8316C36 7.98443 27.9402 0 18 0ZM26.6504 13.4414C26.6625 13.6285 26.6625 13.8235 26.6625 14.0145C26.6625 19.8576 22.1705 26.5882 13.9621 26.5882C11.4308 26.5882 9.08437 25.8598 7.10759 24.606C7.4692 24.6458 7.81473 24.6618 8.18438 24.6618C10.2737 24.6618 12.1942 23.9612 13.725 22.7751C11.7643 22.7353 10.117 21.4616 9.55446 19.7103C10.2415 19.8098 10.8603 19.8098 11.5674 19.6307C10.5578 19.4275 9.65039 18.8843 8.99926 18.0935C8.34813 17.3026 7.99347 16.3128 7.99554 15.2922V15.2365C8.58616 15.5668 9.28125 15.7698 10.0085 15.7977C9.39713 15.3941 8.89577 14.8473 8.54884 14.2057C8.20191 13.5642 8.02014 12.8477 8.01964 12.1199C8.01964 11.296 8.23661 10.5437 8.62634 9.89098C9.74693 11.2575 11.1453 12.3752 12.7304 13.1714C14.3156 13.9675 16.0522 14.4243 17.8272 14.5121C17.1964 11.507 19.4625 9.07502 22.1866 9.07502C23.4723 9.07502 24.6295 9.60838 25.4451 10.4681C26.4536 10.281 27.4179 9.9069 28.2777 9.40538C27.9442 10.4283 27.2451 11.292 26.317 11.8373C27.217 11.7418 28.0848 11.495 28.8884 11.1487C28.2817 12.0324 27.5223 12.8165 26.6504 13.4414Z" fill="white"/>
</svg>
