<svg width="36" height="36" viewBox="0 0 36 36" fill="none" xmlns="http://www.w3.org/2000/svg">
<path d="M18 0C8.05875 0 0 7.98337 0 17.8316C0 27.6799 8.05875 35.6632 18 35.6632C27.9412 35.6632 36 27.6799 36 17.8316C36 7.98337 27.9412 0 18 0ZM13.5937 25.2225H9.94875V13.6022H13.5937V25.2225ZM11.7487 12.1757C10.5975 12.1757 9.85312 11.3677 9.85312 10.3683C9.85312 9.3486 10.62 8.56475 11.7956 8.56475C12.9712 8.56475 13.6912 9.3486 13.7137 10.3683C13.7137 11.3677 12.9712 12.1757 11.7487 12.1757ZM26.9062 25.2225H23.2612V18.7826C23.2612 17.2837 22.7325 16.2658 21.4144 16.2658C20.4075 16.2658 19.8094 16.9549 19.545 17.618C19.4475 17.8539 19.4231 18.1883 19.4231 18.5207V25.2206H15.7762V17.3078C15.7762 15.8571 15.7294 14.6442 15.6806 13.6003H18.8475L19.0144 15.2145H19.0875C19.5675 14.4566 20.7431 13.3384 22.71 13.3384C25.1081 13.3384 26.9062 14.9303 26.9062 18.3517V25.2225Z" fill="white"/>
</svg>
